<svg xmlns="http://www.w3.org/2000/svg" viewBox="0 0 1200 630">
<rect width="1200" height="630" fill="#0a0a1a"/>
<rect x="60" y="30" width="240" height="240" rx="4" fill="#e74c3c" opacity="0.85"/>
<rect x="310" y="30" width="240" height="240" rx="4" fill="#3498db" opacity="0.85"/>
<rect x="560" y="30" width="240" height="240" rx="4" fill="#2ecc71" opacity="0.85"/>
<rect x="810" y="30" width="240" height="240" rx="4" fill="#f39c12" opacity="0.85"/>
<rect x="60" y="280" width="240" height="240" rx="4" fill="#9b59b6" opacity="0.85"/>
<rect x="310" y="280" width="240" height="240" rx="4" fill="#e74c3c" opacity="0.85"/>
<rect x="560" y="280" width="240" height="240" rx="4" fill="#3498db" opacity="0.85"/>
<rect x="810" y="280" width="240" height="240" rx="4" fill="#2ecc71" opacity="0.85"/>
<line x1="300" y1="30" x2="300" y2="520" stroke="#0a0a1a" stroke-width="4"/>
<line x1="550" y1="30" x2="550" y2="520" stroke="#0a0a1a" stroke-width="4"/>
<line x1="800" y1="30" x2="800" y2="520" stroke="#0a0a1a" stroke-width="4"/>
<line x1="60" y1="270" x2="1050" y2="270" stroke="#0a0a1a" stroke-width="4"/>
<text x="600" y="570" text-anchor="middle" fill="#e8e8e8" font-family="sans-serif" font-size="48" font-weight="bold">Stained Glass Puzzle</text>
<text x="600" y="610" text-anchor="middle" fill="#8899aa" font-family="sans-serif" font-size="24">gamezipper.com</text>
</svg>
