<?xml version="1.0" encoding="UTF-8"?>
<svg xmlns="http://www.w3.org/2000/svg" width="256" height="256" viewBox="0 0 256 256">
<rect width="256" height="256" rx="40" fill="#0a0a1a"/>
<rect x="28" y="28" width="60" height="60" rx="8" fill="rgba(255,255,255,0.95)" stroke="rgba(0,0,0,0.15)" stroke-width="1"/>
<circle cx="58.0" cy="58.0" r="18" fill="#e74c3c" stroke="rgba(0,0,0,0.2)" stroke-width="2"/>
<rect x="100" y="28" width="60" height="60" rx="8" fill="rgba(255,255,255,0.95)" stroke="rgba(0,0,0,0.15)" stroke-width="1"/>
<rect x="114" y="42" width="32" height="32" fill="#f1c40f" stroke="rgba(0,0,0,0.2)" stroke-width="2"/>
<rect x="172" y="28" width="60" height="60" rx="8" fill="rgba(255,255,255,0.95)" stroke="rgba(0,0,0,0.15)" stroke-width="1"/>
<polygon points="202.0,40 218,71 186,71" fill="#3498db" stroke="rgba(0,0,0,0.2)" stroke-width="2"/>
<rect x="28" y="100" width="60" height="60" rx="8" fill="rgba(255,255,255,0.95)" stroke="rgba(0,0,0,0.15)" stroke-width="1"/>
<polygon points="58,112 63,123 75,124 66,133 69,145 58,138 47,145 50,133 41,124 53,123" fill="#2ecc71" stroke="rgba(0,0,0,0.2)" stroke-width="2"/>
<rect x="100" y="100" width="60" height="60" rx="8" fill="rgba(255,255,255,0.95)" stroke="rgba(0,0,0,0.15)" stroke-width="1"/>
<polygon points="130.0,111 145,130 130.0,149 115,130" fill="#9b59b6" stroke="rgba(0,0,0,0.2)" stroke-width="2"/>
<rect x="172" y="100" width="60" height="60" rx="8" fill="rgba(255,255,255,0.95)" stroke="rgba(0,0,0,0.15)" stroke-width="1"/>
<polygon points="202,112 218,121 218,139 202,148 186,139 186,121" fill="#e67e22" stroke="rgba(0,0,0,0.2)" stroke-width="2"/>
</svg>