<?xml version="1.0" encoding="UTF-8"?>
<svg xmlns="http://www.w3.org/2000/svg" width="1200" height="630" viewBox="0 0 1200 630">
  <defs>
    <linearGradient id="bg" x1="0" y1="0" x2="1" y2="1">
      <stop offset="0%" stop-color="#0a0a1a"/>
      <stop offset="100%" stop-color="#1a1a3e"/>
    </linearGradient>
    <filter id="glow"><feGaussianBlur stdDeviation="4" result="blur"/><feMerge><feMergeNode in="blur"/><feMergeNode in="SourceGraphic"/></feMerge></filter>
  </defs>
  <rect width="1200" height="630" fill="url(#bg)"/>
<line x1="0" y1="0" x2="0" y2="630" stroke="#5c6fff" stroke-width="0.5" opacity="0.04"/>
<line x1="80" y1="0" x2="80" y2="630" stroke="#5c6fff" stroke-width="0.5" opacity="0.04"/>
<line x1="160" y1="0" x2="160" y2="630" stroke="#5c6fff" stroke-width="0.5" opacity="0.04"/>
<line x1="240" y1="0" x2="240" y2="630" stroke="#5c6fff" stroke-width="0.5" opacity="0.04"/>
<line x1="320" y1="0" x2="320" y2="630" stroke="#5c6fff" stroke-width="0.5" opacity="0.04"/>
<line x1="400" y1="0" x2="400" y2="630" stroke="#5c6fff" stroke-width="0.5" opacity="0.04"/>
<line x1="480" y1="0" x2="480" y2="630" stroke="#5c6fff" stroke-width="0.5" opacity="0.04"/>
<line x1="560" y1="0" x2="560" y2="630" stroke="#5c6fff" stroke-width="0.5" opacity="0.04"/>
<line x1="640" y1="0" x2="640" y2="630" stroke="#5c6fff" stroke-width="0.5" opacity="0.04"/>
<line x1="720" y1="0" x2="720" y2="630" stroke="#5c6fff" stroke-width="0.5" opacity="0.04"/>
<line x1="800" y1="0" x2="800" y2="630" stroke="#5c6fff" stroke-width="0.5" opacity="0.04"/>
<line x1="880" y1="0" x2="880" y2="630" stroke="#5c6fff" stroke-width="0.5" opacity="0.04"/>
<line x1="960" y1="0" x2="960" y2="630" stroke="#5c6fff" stroke-width="0.5" opacity="0.04"/>
<line x1="1040" y1="0" x2="1040" y2="630" stroke="#5c6fff" stroke-width="0.5" opacity="0.04"/>
<line x1="1120" y1="0" x2="1120" y2="630" stroke="#5c6fff" stroke-width="0.5" opacity="0.04"/>
<line x1="0" y1="0" x2="1200" y2="0" stroke="#5c6fff" stroke-width="0.5" opacity="0.04"/>
<line x1="0" y1="80" x2="1200" y2="80" stroke="#5c6fff" stroke-width="0.5" opacity="0.04"/>
<line x1="0" y1="160" x2="1200" y2="160" stroke="#5c6fff" stroke-width="0.5" opacity="0.04"/>
<line x1="0" y1="240" x2="1200" y2="240" stroke="#5c6fff" stroke-width="0.5" opacity="0.04"/>
<line x1="0" y1="320" x2="1200" y2="320" stroke="#5c6fff" stroke-width="0.5" opacity="0.04"/>
<line x1="0" y1="400" x2="1200" y2="400" stroke="#5c6fff" stroke-width="0.5" opacity="0.04"/>
<line x1="0" y1="480" x2="1200" y2="480" stroke="#5c6fff" stroke-width="0.5" opacity="0.04"/>
<line x1="0" y1="560" x2="1200" y2="560" stroke="#5c6fff" stroke-width="0.5" opacity="0.04"/>
<rect x="60" y="80" width="55" height="55" rx="8" fill="rgba(255,255,255,0.95)" stroke="rgba(0,0,0,0.1)" stroke-width="1"/>
<circle cx="87.5" cy="107.5" r="16" fill="#e74c3c" stroke="rgba(0,0,0,0.2)" stroke-width="1.5"/>
<rect x="121" y="80" width="55" height="55" rx="8" fill="rgba(255,255,255,0.95)" stroke="rgba(0,0,0,0.1)" stroke-width="1"/>
<circle cx="148.5" cy="107.5" r="16" fill="#e67e22" stroke="rgba(0,0,0,0.2)" stroke-width="1.5"/>
<rect x="182" y="80" width="55" height="55" rx="8" fill="rgba(255,255,255,0.95)" stroke="rgba(0,0,0,0.1)" stroke-width="1"/>
<circle cx="209.5" cy="107.5" r="16" fill="#f1c40f" stroke="rgba(0,0,0,0.2)" stroke-width="1.5"/>
<rect x="243" y="80" width="55" height="55" rx="8" fill="rgba(255,255,255,0.95)" stroke="rgba(0,0,0,0.1)" stroke-width="1"/>
<circle cx="270.5" cy="107.5" r="16" fill="#2ecc71" stroke="rgba(0,0,0,0.2)" stroke-width="1.5"/>
<rect x="304" y="80" width="55" height="55" rx="8" fill="rgba(255,255,255,0.95)" stroke="rgba(0,0,0,0.1)" stroke-width="1"/>
<circle cx="331.5" cy="107.5" r="16" fill="#3498db" stroke="rgba(0,0,0,0.2)" stroke-width="1.5"/>
<rect x="365" y="80" width="55" height="55" rx="8" fill="rgba(255,255,255,0.95)" stroke="rgba(0,0,0,0.1)" stroke-width="1"/>
<circle cx="392.5" cy="107.5" r="16" fill="#9b59b6" stroke="rgba(0,0,0,0.2)" stroke-width="1.5"/>
<rect x="60" y="141" width="55" height="55" rx="8" fill="rgba(255,255,255,0.95)" stroke="rgba(0,0,0,0.1)" stroke-width="1"/>
<rect x="73" y="154" width="30" height="30" fill="#e74c3c" stroke="rgba(0,0,0,0.2)" stroke-width="1.5"/>
<rect x="121" y="141" width="55" height="55" rx="8" fill="rgba(255,255,255,0.95)" stroke="rgba(0,0,0,0.1)" stroke-width="1"/>
<rect x="134" y="154" width="30" height="30" fill="#e67e22" stroke="rgba(0,0,0,0.2)" stroke-width="1.5"/>
<rect x="182" y="141" width="55" height="55" rx="8" fill="rgba(255,255,255,0.95)" stroke="rgba(0,0,0,0.1)" stroke-width="1"/>
<rect x="195" y="154" width="30" height="30" fill="#f1c40f" stroke="rgba(0,0,0,0.2)" stroke-width="1.5"/>
<rect x="243" y="141" width="55" height="55" rx="8" fill="rgba(255,255,255,0.95)" stroke="rgba(0,0,0,0.1)" stroke-width="1"/>
<rect x="256" y="154" width="30" height="30" fill="#2ecc71" stroke="rgba(0,0,0,0.2)" stroke-width="1.5"/>
<rect x="304" y="141" width="55" height="55" rx="8" fill="rgba(255,255,255,0.95)" stroke="rgba(0,0,0,0.1)" stroke-width="1"/>
<rect x="317" y="154" width="30" height="30" fill="#3498db" stroke="rgba(0,0,0,0.2)" stroke-width="1.5"/>
<rect x="365" y="141" width="55" height="55" rx="8" fill="rgba(255,255,255,0.95)" stroke="rgba(0,0,0,0.1)" stroke-width="1"/>
<rect x="378" y="154" width="30" height="30" fill="#9b59b6" stroke="rgba(0,0,0,0.2)" stroke-width="1.5"/>
<rect x="60" y="202" width="55" height="55" rx="8" fill="rgba(255,255,255,0.95)" stroke="rgba(0,0,0,0.1)" stroke-width="1"/>
<polygon points="87.5,212 102,230 87.5,247 73,230" fill="#e74c3c" stroke="rgba(0,0,0,0.2)" stroke-width="1.5"/>
<rect x="121" y="202" width="55" height="55" rx="8" fill="rgba(255,255,255,0.95)" stroke="rgba(0,0,0,0.1)" stroke-width="1"/>
<polygon points="148.5,212 163,230 148.5,247 134,230" fill="#e67e22" stroke="rgba(0,0,0,0.2)" stroke-width="1.5"/>
<rect x="182" y="202" width="55" height="55" rx="8" fill="rgba(255,255,255,0.95)" stroke="rgba(0,0,0,0.1)" stroke-width="1"/>
<polygon points="209.5,212 224,230 209.5,247 195,230" fill="#f1c40f" stroke="rgba(0,0,0,0.2)" stroke-width="1.5"/>
<rect x="243" y="202" width="55" height="55" rx="8" fill="rgba(255,255,255,0.95)" stroke="rgba(0,0,0,0.1)" stroke-width="1"/>
<polygon points="270.5,212 285,230 270.5,247 256,230" fill="#2ecc71" stroke="rgba(0,0,0,0.2)" stroke-width="1.5"/>
<rect x="304" y="202" width="55" height="55" rx="8" fill="rgba(255,255,255,0.95)" stroke="rgba(0,0,0,0.1)" stroke-width="1"/>
<polygon points="331.5,212 346,230 331.5,247 317,230" fill="#3498db" stroke="rgba(0,0,0,0.2)" stroke-width="1.5"/>
<rect x="365" y="202" width="55" height="55" rx="8" fill="rgba(255,255,255,0.95)" stroke="rgba(0,0,0,0.1)" stroke-width="1"/>
<polygon points="392.5,212 407,230 392.5,247 378,230" fill="#9b59b6" stroke="rgba(0,0,0,0.2)" stroke-width="1.5"/>
<rect x="60" y="263" width="55" height="55" rx="8" fill="rgba(255,255,255,0.95)" stroke="rgba(0,0,0,0.1)" stroke-width="1"/>
<polygon points="87.5,274 102,302 73,302" fill="#e74c3c" stroke="rgba(0,0,0,0.2)" stroke-width="1.5"/>
<rect x="121" y="263" width="55" height="55" rx="8" fill="rgba(255,255,255,0.95)" stroke="rgba(0,0,0,0.1)" stroke-width="1"/>
<polygon points="148.5,274 163,302 134,302" fill="#e67e22" stroke="rgba(0,0,0,0.2)" stroke-width="1.5"/>
<rect x="182" y="263" width="55" height="55" rx="8" fill="rgba(255,255,255,0.95)" stroke="rgba(0,0,0,0.1)" stroke-width="1"/>
<polygon points="209.5,274 224,302 195,302" fill="#f1c40f" stroke="rgba(0,0,0,0.2)" stroke-width="1.5"/>
<rect x="243" y="263" width="55" height="55" rx="8" fill="rgba(255,255,255,0.95)" stroke="rgba(0,0,0,0.1)" stroke-width="1"/>
<polygon points="270.5,274 285,302 256,302" fill="#2ecc71" stroke="rgba(0,0,0,0.2)" stroke-width="1.5"/>
<rect x="304" y="263" width="55" height="55" rx="8" fill="rgba(255,255,255,0.95)" stroke="rgba(0,0,0,0.1)" stroke-width="1"/>
<polygon points="331.5,274 346,302 317,302" fill="#3498db" stroke="rgba(0,0,0,0.2)" stroke-width="1.5"/>
<rect x="365" y="263" width="55" height="55" rx="8" fill="rgba(255,255,255,0.95)" stroke="rgba(0,0,0,0.1)" stroke-width="1"/>
<polygon points="392.5,274 407,302 378,302" fill="#9b59b6" stroke="rgba(0,0,0,0.2)" stroke-width="1.5"/>
<rect x="60" y="324" width="55" height="55" rx="8" fill="rgba(255,255,255,0.95)" stroke="rgba(0,0,0,0.1)" stroke-width="1"/>
<polygon points="88,335 92,345 103,346 95,354 97,365 88,359 78,365 80,354 72,346 83,345" fill="#e74c3c" stroke="rgba(0,0,0,0.2)" stroke-width="1.5"/>
<rect x="121" y="324" width="55" height="55" rx="8" fill="rgba(255,255,255,0.95)" stroke="rgba(0,0,0,0.1)" stroke-width="1"/>
<polygon points="148,335 153,345 164,346 156,354 158,365 148,359 139,365 141,354 133,346 144,345" fill="#e67e22" stroke="rgba(0,0,0,0.2)" stroke-width="1.5"/>
<rect x="182" y="324" width="55" height="55" rx="8" fill="rgba(255,255,255,0.95)" stroke="rgba(0,0,0,0.1)" stroke-width="1"/>
<polygon points="210,335 214,345 225,346 217,354 219,365 210,359 200,365 202,354 194,346 205,345" fill="#f1c40f" stroke="rgba(0,0,0,0.2)" stroke-width="1.5"/>
<rect x="243" y="324" width="55" height="55" rx="8" fill="rgba(255,255,255,0.95)" stroke="rgba(0,0,0,0.1)" stroke-width="1"/>
<polygon points="270,335 275,345 286,346 278,354 280,365 270,359 261,365 263,354 255,346 266,345" fill="#2ecc71" stroke="rgba(0,0,0,0.2)" stroke-width="1.5"/>
<rect x="304" y="324" width="55" height="55" rx="8" fill="rgba(255,255,255,0.95)" stroke="rgba(0,0,0,0.1)" stroke-width="1"/>
<polygon points="332,335 336,345 347,346 339,354 341,365 332,359 322,365 324,354 316,346 327,345" fill="#3498db" stroke="rgba(0,0,0,0.2)" stroke-width="1.5"/>
<rect x="365" y="324" width="55" height="55" rx="8" fill="rgba(255,255,255,0.95)" stroke="rgba(0,0,0,0.1)" stroke-width="1"/>
<polygon points="392,335 397,345 408,346 400,354 402,365 392,359 383,365 385,354 377,346 388,345" fill="#9b59b6" stroke="rgba(0,0,0,0.2)" stroke-width="1.5"/>
<rect x="60" y="385" width="55" height="55" rx="8" fill="rgba(255,255,255,0.95)" stroke="rgba(0,0,0,0.1)" stroke-width="1"/>
<polygon points="88,396 102,404 102,421 88,429 73,421 73,404" fill="#e74c3c" stroke="rgba(0,0,0,0.2)" stroke-width="1.5"/>
<rect x="121" y="385" width="55" height="55" rx="8" fill="rgba(255,255,255,0.95)" stroke="rgba(0,0,0,0.1)" stroke-width="1"/>
<polygon points="148,396 163,404 163,421 148,429 134,421 134,404" fill="#e67e22" stroke="rgba(0,0,0,0.2)" stroke-width="1.5"/>
<rect x="182" y="385" width="55" height="55" rx="8" fill="rgba(255,255,255,0.95)" stroke="rgba(0,0,0,0.1)" stroke-width="1"/>
<polygon points="210,396 224,404 224,421 210,429 195,421 195,404" fill="#f1c40f" stroke="rgba(0,0,0,0.2)" stroke-width="1.5"/>
<rect x="243" y="385" width="55" height="55" rx="8" fill="rgba(255,255,255,0.95)" stroke="rgba(0,0,0,0.1)" stroke-width="1"/>
<polygon points="270,396 285,404 285,421 270,429 256,421 256,404" fill="#2ecc71" stroke="rgba(0,0,0,0.2)" stroke-width="1.5"/>
<rect x="304" y="385" width="55" height="55" rx="8" fill="rgba(255,255,255,0.95)" stroke="rgba(0,0,0,0.1)" stroke-width="1"/>
<polygon points="332,396 346,404 346,421 332,429 317,421 317,404" fill="#3498db" stroke="rgba(0,0,0,0.2)" stroke-width="1.5"/>
<rect x="365" y="385" width="55" height="55" rx="8" fill="rgba(255,255,255,0.95)" stroke="rgba(0,0,0,0.1)" stroke-width="1"/>
<polygon points="392,396 407,404 407,421 392,429 378,421 378,404" fill="#9b59b6" stroke="rgba(0,0,0,0.2)" stroke-width="1.5"/>

  <text x="640" y="190" font-family="Arial,sans-serif" font-size="76" font-weight="bold" fill="#7c83ff" filter="url(#glow)">Qwirkle</text>
  <text x="640" y="245" font-family="Arial,sans-serif" font-size="26" fill="#aab">Color &amp; Shape Tile Strategy Game</text>
  <text x="640" y="285" font-family="Arial,sans-serif" font-size="22" fill="#889">Play Free Online - No Download Required</text>
  <text x="640" y="365" font-family="Arial,sans-serif" font-size="18" fill="#5c6fff">&#9670; 108 Tiles: 6 Colors x 6 Shapes</text>
  <text x="640" y="395" font-family="Arial,sans-serif" font-size="18" fill="#5c6fff">&#9670; Play vs AI - 3 Difficulty Levels</text>
  <text x="640" y="425" font-family="Arial,sans-serif" font-size="18" fill="#5c6fff">&#9670; 30 Levels with Star Ratings</text>
  <text x="640" y="455" font-family="Arial,sans-serif" font-size="18" fill="#5c6fff">&#9670; Qwirkle Bonus Scoring</text>
  <text x="600" y="580" font-family="Arial,sans-serif" font-size="16" fill="#556" text-anchor="middle">GameZipper.com</text>
</svg>