<svg xmlns="http://www.w3.org/2000/svg" viewBox="0 0 512 512">
  <defs>
    <linearGradient id="bg" x1="0" y1="0" x2="1" y2="1">
      <stop offset="0%" stop-color="#0a0e27"/>
      <stop offset="50%" stop-color="#1a1f3a"/>
      <stop offset="100%" stop-color="#2d1b4e"/>
    </linearGradient>
    <linearGradient id="glow" x1="0" y1="0" x2="0" y2="1">
      <stop offset="0%" stop-color="#00d9ff" stop-opacity="0.8"/>
      <stop offset="100%" stop-color="#ff006e" stop-opacity="0.8"/>
    </linearGradient>
  </defs>
  <rect width="512" height="512" rx="80" fill="url(#bg)"/>
  <rect x="16" y="16" width="480" height="480" rx="64" fill="none" stroke="url(#glow)" stroke-width="3" opacity="0.5"/>
  <!-- Grid -->
  <g transform="translate(96,96)">
    <!-- Shaded cells (dark) -->
    <rect x="0" y="0" width="64" height="64" rx="8" fill="#1a1a2e" stroke="rgba(255,0,110,0.4)" stroke-width="2"/>
    <rect x="192" y="64" width="64" height="64" rx="8" fill="#1a1a2e" stroke="rgba(255,0,110,0.4)" stroke-width="2"/>
    <rect x="64" y="192" width="64" height="64" rx="8" fill="#1a1a2e" stroke="rgba(255,0,110,0.4)" stroke-width="2"/>
    <rect x="256" y="192" width="64" height="64" rx="8" fill="#1a1a2e" stroke="rgba(255,0,110,0.4)" stroke-width="2"/>
    <rect x="192" y="256" width="64" height="64" rx="8" fill="#1a1a2e" stroke="rgba(255,0,110,0.4)" stroke-width="2"/>
    <!-- Unshaded cells (light) -->
    <rect x="64" y="0" width="64" height="64" rx="8" fill="rgba(255,255,255,0.06)" stroke="rgba(255,255,255,0.1)" stroke-width="1.5"/>
    <rect x="128" y="0" width="64" height="64" rx="8" fill="rgba(255,255,255,0.06)" stroke="rgba(255,255,255,0.1)" stroke-width="1.5"/>
    <rect x="192" y="0" width="64" height="64" rx="8" fill="rgba(255,255,255,0.06)" stroke="rgba(255,255,255,0.1)" stroke-width="1.5"/>
    <rect x="256" y="0" width="64" height="64" rx="8" fill="rgba(255,255,255,0.06)" stroke="rgba(255,255,255,0.1)" stroke-width="1.5"/>
    <rect x="0" y="64" width="64" height="64" rx="8" fill="rgba(255,255,255,0.06)" stroke="rgba(255,255,255,0.1)" stroke-width="1.5"/>
    <rect x="64" y="64" width="64" height="64" rx="8" fill="rgba(255,255,255,0.06)" stroke="rgba(255,255,255,0.1)" stroke-width="1.5"/>
    <rect x="128" y="64" width="64" height="64" rx="8" fill="rgba(255,255,255,0.06)" stroke="rgba(255,255,255,0.1)" stroke-width="1.5"/>
    <rect x="256" y="64" width="64" height="64" rx="8" fill="rgba(255,255,255,0.06)" stroke="rgba(255,255,255,0.1)" stroke-width="1.5"/>
    <rect x="0" y="128" width="64" height="64" rx="8" fill="rgba(255,255,255,0.06)" stroke="rgba(255,255,255,0.1)" stroke-width="1.5"/>
    <rect x="64" y="128" width="64" height="64" rx="8" fill="rgba(255,255,255,0.06)" stroke="rgba(255,255,255,0.1)" stroke-width="1.5"/>
    <rect x="128" y="128" width="64" height="64" rx="8" fill="rgba(255,255,255,0.06)" stroke="rgba(255,255,255,0.1)" stroke-width="1.5"/>
    <rect x="192" y="128" width="64" height="64" rx="8" fill="rgba(255,255,255,0.06)" stroke="rgba(255,255,255,0.1)" stroke-width="1.5"/>
    <rect x="256" y="128" width="64" height="64" rx="8" fill="rgba(255,255,255,0.06)" stroke="rgba(255,255,255,0.1)" stroke-width="1.5"/>
    <rect x="0" y="192" width="64" height="64" rx="8" fill="rgba(255,255,255,0.06)" stroke="rgba(255,255,255,0.1)" stroke-width="1.5"/>
    <rect x="128" y="192" width="64" height="64" rx="8" fill="rgba(255,255,255,0.06)" stroke="rgba(255,255,255,0.1)" stroke-width="1.5"/>
    <rect x="0" y="256" width="64" height="64" rx="8" fill="rgba(255,255,255,0.06)" stroke="rgba(255,255,255,0.1)" stroke-width="1.5"/>
    <rect x="64" y="256" width="64" height="64" rx="8" fill="rgba(255,255,255,0.06)" stroke="rgba(255,255,255,0.1)" stroke-width="1.5"/>
    <rect x="128" y="256" width="64" height="64" rx="8" fill="rgba(255,255,255,0.06)" stroke="rgba(255,255,255,0.1)" stroke-width="1.5"/>
    <rect x="256" y="256" width="64" height="64" rx="8" fill="rgba(255,255,255,0.06)" stroke="rgba(255,255,255,0.1)" stroke-width="1.5"/>
    <!-- Numbers -->
    <text x="32" y="42" text-anchor="middle" fill="rgba(255,255,255,0.25)" font-size="24" font-weight="700" font-family="sans-serif">3</text>
    <text x="96" y="42" text-anchor="middle" fill="rgba(255,255,255,0.7)" font-size="24" font-weight="700" font-family="sans-serif">5</text>
    <text x="160" y="42" text-anchor="middle" fill="rgba(255,255,255,0.7)" font-size="24" font-weight="700" font-family="sans-serif">1</text>
    <text x="288" y="42" text-anchor="middle" fill="rgba(255,255,255,0.7)" font-size="24" font-weight="700" font-family="sans-serif">4</text>
    <text x="32" y="106" text-anchor="middle" fill="rgba(255,255,255,0.7)" font-size="24" font-weight="700" font-family="sans-serif">2</text>
    <text x="96" y="106" text-anchor="middle" fill="rgba(255,255,255,0.7)" font-size="24" font-weight="700" font-family="sans-serif">4</text>
    <text x="160" y="106" text-anchor="middle" fill="rgba(255,255,255,0.7)" font-size="24" font-weight="700" font-family="sans-serif">3</text>
    <text x="288" y="106" text-anchor="middle" fill="rgba(255,255,255,0.7)" font-size="24" font-weight="700" font-family="sans-serif">1</text>
    <text x="32" y="170" text-anchor="middle" fill="rgba(255,255,255,0.7)" font-size="24" font-weight="700" font-family="sans-serif">1</text>
    <text x="96" y="170" text-anchor="middle" fill="rgba(255,255,255,0.7)" font-size="24" font-weight="700" font-family="sans-serif">2</text>
    <text x="160" y="170" text-anchor="middle" fill="rgba(255,255,255,0.7)" font-size="24" font-weight="700" font-family="sans-serif">5</text>
    <text x="224" y="170" text-anchor="middle" fill="rgba(255,255,255,0.7)" font-size="24" font-weight="700" font-family="sans-serif">3</text>
    <text x="288" y="170" text-anchor="middle" fill="rgba(255,255,255,0.7)" font-size="24" font-weight="700" font-family="sans-serif">2</text>
    <text x="32" y="234" text-anchor="middle" fill="rgba(255,255,255,0.7)" font-size="24" font-weight="700" font-family="sans-serif">4</text>
    <text x="160" y="234" text-anchor="middle" fill="rgba(255,255,255,0.7)" font-size="24" font-weight="700" font-family="sans-serif">3</text>
    <text x="288" y="234" text-anchor="middle" fill="rgba(255,255,255,0.7)" font-size="24" font-weight="700" font-family="sans-serif">5</text>
    <text x="32" y="298" text-anchor="middle" fill="rgba(255,255,255,0.7)" font-size="24" font-weight="700" font-family="sans-serif">5</text>
    <text x="96" y="298" text-anchor="middle" fill="rgba(255,255,255,0.7)" font-size="24" font-weight="700" font-family="sans-serif">1</text>
    <text x="160" y="298" text-anchor="middle" fill="rgba(255,255,255,0.7)" font-size="24" font-weight="700" font-family="sans-serif">4</text>
    <text x="288" y="298" text-anchor="middle" fill="rgba(255,255,255,0.7)" font-size="24" font-weight="700" font-family="sans-serif">2</text>
  </g>
  <!-- Title -->
  <text x="256" y="440" text-anchor="middle" fill="white" font-size="56" font-weight="800" font-family="sans-serif" opacity="0.95">HITORI</text>
  <text x="256" y="472" text-anchor="middle" fill="#00d9ff" font-size="18" font-weight="600" font-family="sans-serif" opacity="0.7">LOGIC PUZZLE</text>
</svg>