<svg xmlns="http://www.w3.org/2000/svg" viewBox="0 0 512 512" width="512" height="512"><defs><linearGradient id="g1" x1="0%" y1="0%" x2="100%" y2="100%"><stop offset="0%" stop-color="#00f5ff"/><stop offset="100%" stop-color="#ff00ff"/></linearGradient><radialGradient id="g2" cx="50%" cy="50%" r="50%"><stop offset="0%" stop-color="#00f5ff" stop-opacity="0.3"/><stop offset="100%" stop-color="#00f5ff" stop-opacity="0"/></radialGradient></defs><rect width="512" height="512" fill="#0a0a14" rx="80"/><circle cx="256" cy="256" r="240" fill="url(#g2)"/><g stroke-width="8" fill="none" stroke-linecap="round" stroke-linejoin="round"><circle cx="256" cy="256" r="120" stroke="url(#g1)"/><circle cx="256" cy="256" r="60" stroke="#ff00ff" stroke-width="6" opacity="0.6"/></g><g><path d="M 256 100 L 256 76 M 256 412 L 256 436 M 100 256 L 76 256 M 412 256 L 436 256" stroke="#00f5ff" stroke-width="6" stroke-linecap="round"/><polygon points="256,68 248,84 264,84" fill="#00f5ff"/><polygon points="256,444 248,428 264,428" fill="#00f5ff"/><polygon points="68,256 84,248 84,264" fill="#00f5ff"/><polygon points="444,256 428,248 428,264" fill="#00f5ff"/></g><g stroke="#ff00ff" stroke-width="5" fill="none" stroke-linecap="round"><path d="M 180 180 Q 256 140 332 180 Q 372 256 332 332 Q 256 372 180 332 Q 140 256 180 180 Z" stroke-dasharray="20 12"/><polygon points="320,170 332,180 322,190" fill="#ff00ff"/></g><g><circle cx="256" cy="256" r="14" fill="#00f5ff"/><circle cx="256" cy="256" r="6" fill="#0a0a14"/></g></svg>