<svg xmlns="http://www.w3.org/2000/svg" width="1200" height="630" viewBox="0 0 1200 630">
  <defs>
    <linearGradient id="bg" x1="0" y1="0" x2="1" y2="1">
      <stop offset="0%" stop-color="#fef6e4"/>
      <stop offset="50%" stop-color="#f3d2c1"/>
      <stop offset="100%" stop-color="#e8a598"/>
    </linearGradient>
  </defs>
  <rect width="1200" height="630" fill="url(#bg)"/>
  <!-- Sticker tray representation -->
  <circle cx="300" cy="315" r="90" fill="#ffd166" stroke="#fff" stroke-width="6"/>
  <circle cx="300" cy="315" r="35" fill="#fff3c4"/>
  <path d="M 480 250 L 580 250 L 580 380 L 480 380 Z M 510 250 L 510 200 L 550 200 L 550 250" fill="#ef476f" stroke="#fff" stroke-width="5"/>
  <g transform="translate(720,315)">
    <circle cx="0" cy="-30" r="22" fill="#06d6a0"/>
    <circle cx="0" cy="30" r="22" fill="#06d6a0"/>
    <circle cx="-30" cy="0" r="22" fill="#06d6a0"/>
    <circle cx="30" cy="0" r="22" fill="#06d6a0"/>
    <circle cx="0" cy="0" r="28" fill="#ffd166"/>
  </g>
  <path d="M 880 380 Q 920 320 960 380 Q 1000 320 1040 380 L 1040 420 L 880 420 Z" fill="#118ab2"/>
  <!-- Stars -->
  <text x="200" y="120" font-size="50">⭐</text>
  <text x="950" y="140" font-size="45">✨</text>
  <!-- Title -->
  <text x="600" y="500" font-family="Arial,sans-serif" font-size="72" font-weight="900" fill="#3a2050" text-anchor="middle">Sticker Book Puzzle</text>
  <text x="600" y="560" font-family="Arial,sans-serif" font-size="32" font-weight="600" fill="#7a5c8a" text-anchor="middle">Drag &amp; Place Stickers — 30 Levels</text>
  <text x="600" y="60" font-family="Arial,sans-serif" font-size="26" font-weight="700" fill="#f582ae" text-anchor="middle">🎮 GAMEZIPPER — Free Browser Game</text>
</svg>