<svg xmlns="http://www.w3.org/2000/svg" viewBox="0 0 512 512">
  <defs>
    <radialGradient id="g1" cx="40%" cy="35%"><stop offset="0%" stop-color="#ff90c0"/><stop offset="100%" stop-color="#ff5078"/></radialGradient>
    <radialGradient id="g2" cx="40%" cy="35%"><stop offset="0%" stop-color="#90d0ff"/><stop offset="100%" stop-color="#3cb4ff"/></radialGradient>
    <radialGradient id="g3" cx="40%" cy="35%"><stop offset="0%" stop-color="#c0ff90"/><stop offset="100%" stop-color="#78ff50"/></radialGradient>
    <radialGradient id="g4" cx="40%" cy="35%"><stop offset="0%" stop-color="#ffe080"/><stop offset="100%" stop-color="#ffc828"/></radialGradient>
    <radialGradient id="g5" cx="40%" cy="35%"><stop offset="0%" stop-color="#d0a0ff"/><stop offset="100%" stop-color="#b450ff"/></radialGradient>
    <radialGradient id="bg" cx="50%" cy="100%"><stop offset="0%" stop-color="#141428"/><stop offset="100%" stop-color="#0a0a1e"/></radialGradient>
  </defs>
  <rect width="512" height="512" rx="96" fill="url(#bg)"/>
  <circle cx="160" cy="180" r="72" fill="url(#g1)" opacity="0.9"/>
  <circle cx="340" cy="160" r="55" fill="url(#g2)" opacity="0.9"/>
  <circle cx="250" cy="320" r="68" fill="url(#g3)" opacity="0.9"/>
  <circle cx="400" cy="350" r="48" fill="url(#g4)" opacity="0.9"/>
  <circle cx="120" cy="380" r="42" fill="url(#g5)" opacity="0.9"/>
  <circle cx="350" cy="260" r="35" fill="url(#g1)" opacity="0.7"/>
  <circle cx="200" cy="120" r="28" fill="url(#g4)" opacity="0.7"/>
  <circle cx="450" cy="220" r="32" fill="url(#g3)" opacity="0.7"/>
  <circle cx="80" cy="260" r="30" fill="url(#g2)" opacity="0.7"/>
  <circle cx="280" cy="440" r="38" fill="url(#g5)" opacity="0.7"/>
  <!-- Sparkles -->
  <circle cx="220" cy="210" r="6" fill="white" opacity="0.8"/>
  <circle cx="310" cy="180" r="4" fill="white" opacity="0.6"/>
  <circle cx="180" cy="300" r="5" fill="white" opacity="0.7"/>
  <circle cx="380" cy="290" r="3" fill="white" opacity="0.5"/>
  <circle cx="150" cy="150" r="4" fill="white" opacity="0.6"/>
</svg>